<svg xmlns="http://www.w3.org/2000/svg" xmlns:xlink="http://www.w3.org/1999/xlink" version="1.1" x="0px" y="0px" viewBox="0 0 100 125" fill='red' style="enable-background:new 0 0 100 100;" xml:space="preserve"><path d="M24.8,57H29h0.7h54.1c0.6,0,1.1-0.4,1.2-1.1l4.8-30.2c0.1-0.4,0-0.7-0.3-1c-0.2-0.3-0.6-0.4-1-0.4H25l-4.9-7.6  c-0.2-0.3-0.5-0.5-0.9-0.6l-7.6-0.8c-0.7-0.1-1.3,0.4-1.4,1.1c-0.1,0.7,0.4,1.3,1.1,1.4l7,0.8l4.6,7c0,0,0,0.1,0,0.1l4.6,28.7h-2.7  c-3.3,0-6.1,2.7-6.1,6.1c0,3.3,2.7,6.1,6.1,6.1h60c0.7,0,1.3-0.6,1.3-1.3c0-0.7-0.6-1.3-1.3-1.3h-60c-2,0-3.6-1.6-3.6-3.6  S22.8,57,24.8,57z M54.3,41.9h4.1l-0.1,5.7h-3.9L54.3,41.9z M51.9,47.5h-3.9l-0.3-5.7h4.1L51.9,47.5z M60.9,41.9H65l-0.3,5.7h-3.9  L60.9,41.9z M67.5,41.9h4.1l-0.5,5.7h-3.9L67.5,41.9z M67.7,39.4l0.3-5.7h4.4l-0.5,5.7H67.7z M65.2,39.4h-4.2l0.1-5.7h4.4L65.2,39.4  z M58.4,39.4h-4.2l-0.1-5.7h4.4L58.4,39.4z M51.7,39.4h-4.2l-0.3-5.7h4.4L51.7,39.4z M45,39.4h-4.2l-0.5-5.7h4.4L45,39.4z   M45.1,41.9l0.3,5.7h-3.9L41,41.9H45.1z M39,47.5h-3.9l-0.7-5.7h4.1L39,47.5z M39.2,50l0.4,4.4H36L35.4,50H39.2z M41.7,50h3.8  l0.2,4.4h-3.7L41.7,50z M48.1,50h3.8l0.1,4.4h-3.7L48.1,50z M54.4,50h3.8l-0.1,4.4h-3.7L54.4,50z M60.8,50h3.8l-0.2,4.4h-3.7  L60.8,50z M67.1,50h3.8l-0.4,4.4h-3.7L67.1,50z M73.4,50h3.8l-0.6,4.4H73L73.4,50z M73.7,47.5l0.5-5.7h4.1l-0.7,5.7H73.7z   M80.8,41.9h3.9l-0.9,5.7h-3.7L80.8,41.9z M81.1,39.4l0.7-5.7H86l-0.9,5.7H81.1z M78.6,39.4h-4.2l0.5-5.7h4.4L78.6,39.4z M75.1,31.2  l0.4-4.4h4.7l-0.6,4.4H75.1z M72.6,31.2h-4.5l0.2-4.4H73L72.6,31.2z M65.6,31.2h-4.5l0.1-4.4h4.7L65.6,31.2z M58.6,31.2h-4.5  L54,26.8h4.7L58.6,31.2z M51.6,31.2h-4.5l-0.2-4.4h4.7L51.6,31.2z M44.6,31.2h-4.5l-0.4-4.4h4.7L44.6,31.2z M37.5,31.2h-4.5  l-0.6-4.4h4.7L37.5,31.2z M37.8,33.7l0.5,5.7h-4.2l-0.7-5.7H37.8z M31.6,39.4h-3.9l-0.9-5.7h4.1L31.6,39.4z M31.9,41.9l0.7,5.7h-3.7  L28,41.9H31.9z M32.9,50l0.6,4.4H30L29.3,50H32.9z M79.2,54.5l0.6-4.4h3.6l-0.7,4.4H79.2z M86.4,31.2h-4.2l0.6-4.4h4.4L86.4,31.2z   M30,26.8l0.6,4.4h-4.2l-0.7-4.4H30z"/><path d="M39.3,68.2c-4.5,0-8.2,3.7-8.2,8.2s3.7,8.2,8.2,8.2s8.2-3.7,8.2-8.2S43.9,68.2,39.3,68.2z M39.3,82.2  c-3.2,0-5.7-2.6-5.7-5.7c0-3.2,2.6-5.7,5.7-5.7c3.2,0,5.7,2.6,5.7,5.7C45.1,79.6,42.5,82.2,39.3,82.2z"/><path d="M71,68.2c-4.5,0-8.2,3.7-8.2,8.2s3.7,8.2,8.2,8.2s8.2-3.7,8.2-8.2S75.6,68.2,71,68.2z M71,82.2c-3.2,0-5.7-2.6-5.7-5.7  c0-3.2,2.6-5.7,5.7-5.7s5.7,2.6,5.7,5.7C76.8,79.6,74.2,82.2,71,82.2z"/><text x="0" y="115" fill="#000000" font-size="5px" font-weight="bold" font-family="'Helvetica Neue', Helvetica, Arial-Unicode, Arial, Sans-serif"></text><text x="0" y="120" fill="#000000" font-size="5px" font-weight="bold" font-family="'Helvetica Neue', Helvetica, Arial-Unicode, Arial, Sans-serif"></text></svg>