<svg xmlns="http://www.w3.org/2000/svg" xmlns:xlink="http://www.w3.org/1999/xlink" version="1.1" x="0px" y="0px" fill="navy" viewBox="0 0 100 125" style="enable-background:new 0 0 100 100;" xml:space="preserve"><g><path d="M47.1,67.1c-3.8,0-6.9,3.3-6.9,7.3s3.1,7.3,6.9,7.3s6.9-3.3,6.9-7.3S50.9,67.1,47.1,67.1z M47.1,77.7   c-1.6,0-2.9-1.5-2.9-3.3c0-1.8,1.3-3.3,2.9-3.3s2.9,1.5,2.9,3.3C50,76.2,48.7,77.7,47.1,77.7z"/><path d="M82.6,67.1c-3.8,0-6.9,3.3-6.9,7.3s3.1,7.3,6.9,7.3s6.9-3.3,6.9-7.3S86.4,67.1,82.6,67.1z M82.6,77.7   c-1.6,0-2.9-1.5-2.9-3.3c0-1.8,1.3-3.3,2.9-3.3s2.9,1.5,2.9,3.3C85.5,76.2,84.2,77.7,82.6,77.7z"/><path d="M97.5,27.2c-0.4-0.5-1-0.8-1.6-0.8H39.3l-1.8-6.5c-0.2-0.9-1-1.5-1.9-1.5H25.2c-1.1,0-2,0.9-2,2   c0,1.1,0.9,2,2,2h8.9l3.8,14c0.1,0.2,0.1,0.4,0.3,0.6c0,0,0,0.1,0.1,0.1c0.1,0.2,0.2,0.3,0.4,0.4c0,0,0.1,0,0.1,0.1   c0.2,0.1,0.3,0.2,0.5,0.3c0,0,0,0,0,0c0.2,0.1,0.4,0.1,0.6,0.1c0,0,0,0,0.1,0c0,0,0,0,0,0c0.2,0,0.3,0,0.5-0.1   c1.1-0.3,1.7-1.4,1.4-2.4l-1.3-4.9h52.8l-6.5,22.1H46.4L45,47.4l0,0c0,0,0,0,0,0l0,0c0-0.1,0-0.1-0.1-0.1c0-0.1,0-0.2-0.1-0.2   c0-0.1-0.1-0.1-0.1-0.2c0-0.1-0.1-0.1-0.1-0.2c0-0.1-0.1-0.1-0.1-0.1c0,0-0.1-0.1-0.1-0.1c0,0-0.1-0.1-0.1-0.1   c-0.1,0-0.1-0.1-0.2-0.1c0,0-0.1,0-0.1,0c-0.1,0-0.2-0.1-0.3-0.1c0,0,0,0,0,0c-0.1,0-0.2-0.1-0.3-0.1c0,0,0,0,0,0   c-0.1,0-0.2,0-0.4,0c0,0-0.1,0-0.1,0c-0.1,0-0.2,0-0.3,0c0,0,0,0,0,0c0,0,0,0,0,0c-0.1,0-0.1,0-0.2,0.1c-0.1,0-0.1,0-0.2,0.1   c-0.1,0-0.1,0.1-0.2,0.1c0,0-0.1,0.1-0.1,0.1c-0.1,0-0.1,0.1-0.2,0.1c0,0-0.1,0.1-0.1,0.1c0,0.1-0.1,0.1-0.1,0.2   c0,0.1-0.1,0.1-0.1,0.2c0,0.1-0.1,0.1-0.1,0.2c0,0.1-0.1,0.1-0.1,0.2c0,0.1,0,0.1,0,0.2c0,0.1,0,0.1,0,0.2c0,0.1,0,0.1,0,0.2   c0,0.1,0,0.1,0,0.2c0,0.1,0,0.1,0,0.2c0,0.1,0,0.1,0,0.2l1.7,6.7c0.1,0.2,0.2,0.4,0.3,0.6l2.1,7.8c0.2,0.9,1,1.5,1.9,1.5h40.4   c1.1,0,2-0.9,2-2s-0.9-2-2-2H48.7l-1.2-4.4h40.8c0.9,0,1.7-0.6,1.9-1.4l7.6-26.1C98,28.3,97.8,27.7,97.5,27.2z"/><path d="M16.8,36.3h14.7c1.1,0,2-0.9,2-2s-0.9-2-2-2H16.8c-1.1,0-2,0.9-2,2S15.6,36.3,16.8,36.3z"/><path d="M32,42.6c0,1.1,0.9,2,2,2h18.1c1.1,0,2-0.9,2-2c0-1.1-0.9-2-2-2H34C32.9,40.6,32,41.5,32,42.6z"/><path d="M28.8,42.8c0-1.1-0.9-2-2-2h-5.7c-1.1,0-2,0.9-2,2c0,1.1,0.9,2,2,2h5.7C28,44.8,28.8,43.9,28.8,42.8z"/><path d="M22.6,48.6H4.1c-1.1,0-2,0.9-2,2c0,1.1,0.9,2,2,2h18.4c1.1,0,2-0.9,2-2C24.6,49.5,23.7,48.6,22.6,48.6z"/><path d="M34.5,48.6H29c-1.1,0-2,0.9-2,2c0,1.1,0.9,2,2,2h5.5c1.1,0,2-0.9,2-2C36.5,49.5,35.6,48.6,34.5,48.6z"/><path d="M6.8,36.3h2.5c1.1,0,2-0.9,2-2s-0.9-2-2-2H6.8c-1.1,0-2,0.9-2,2S5.7,36.3,6.8,36.3z"/></g></svg>